<?xml version="1.0" encoding="UTF-8" standalone="no"?>
<!DOCTYPE svg PUBLIC "-//W3C//DTD SVG 1.1//EN" "http://www.w3.org/Graphics/SVG/1.1/DTD/svg11.dtd">
<svg width="100%" height="100%" viewBox="0 0 592 592" version="1.1" xmlns="http://www.w3.org/2000/svg" xmlns:xlink="http://www.w3.org/1999/xlink" xml:space="preserve" style="fill-rule:evenodd;clip-rule:evenodd;stroke-linejoin:round;stroke-miterlimit:1.41421;">
    <g transform="matrix(4.16667,0,0,4.16667,0,0)">
        <path d="M60.175,56.704C59.391,52.892 63.269,48.861 68.312,47.915C72.607,47.116 74.484,49.516 75.272,53.324C76.054,57.133 75.402,62.989 71.601,63.773C67.792,64.556 60.955,60.508 60.175,56.704Z" style="fill:rgb(214,36,49);"/>
        <rect x="13.369" y="100.876" width="115.058" height="7.871" style="fill:rgb(214,36,49);"/>
        <path d="M95.868,58.081C95.513,57.974 95.16,57.832 94.816,57.666C95.16,57.832 95.513,57.974 95.868,58.081Z" style="fill:rgb(214,36,49);fill-rule:nonzero;"/>
        <path d="M95.093,43.037C95.024,43.037 94.956,43.048 94.885,43.051C95.282,43.037 95.686,43.057 96.088,43.122C95.757,43.067 95.425,43.037 95.093,43.037Z" style="fill:rgb(214,36,49);fill-rule:nonzero;"/>
        <path d="M93.564,43.252C93.931,43.149 94.309,43.09 94.692,43.063C94.309,43.09 93.931,43.149 93.564,43.252Z" style="fill:rgb(214,36,49);fill-rule:nonzero;"/>
        <path d="M96.232,43.155C96.584,43.22 96.933,43.316 97.28,43.438C96.933,43.316 96.584,43.22 96.232,43.155Z" style="fill:rgb(214,36,49);fill-rule:nonzero;"/>
        <path d="M96.929,58.308C96.594,58.262 96.255,58.192 95.92,58.093C96.255,58.194 96.594,58.262 96.929,58.308Z" style="fill:rgb(214,36,49);fill-rule:nonzero;"/>
        <path d="M91.645,55.092C91.379,54.753 91.125,54.398 90.897,54.014C91.125,54.398 91.379,54.753 91.645,55.092Z" style="fill:rgb(214,36,49);fill-rule:nonzero;"/>
        <path d="M94.507,57.501C94.27,57.373 94.031,57.24 93.801,57.087C94.031,57.24 94.27,57.373 94.507,57.501Z" style="fill:rgb(214,36,49);fill-rule:nonzero;"/>
        <path d="M93.449,56.836C93.241,56.68 93.032,56.514 92.834,56.338C93.036,56.514 93.241,56.68 93.449,56.836Z" style="fill:rgb(214,36,49);fill-rule:nonzero;"/>
        <path d="M92.314,43.786C92.668,43.575 93.042,43.422 93.427,43.301C93.042,43.422 92.668,43.575 92.314,43.786Z" style="fill:rgb(214,36,49);fill-rule:nonzero;"/>
        <path d="M92.502,56.034C92.297,55.835 92.102,55.621 91.913,55.399C92.102,55.622 92.297,55.835 92.502,56.034Z" style="fill:rgb(214,36,49);fill-rule:nonzero;"/>
        <path d="M100.107,45.145C100.371,45.383 100.623,45.639 100.868,45.915C100.623,45.639 100.371,45.383 100.107,45.145Z" style="fill:rgb(214,36,49);fill-rule:nonzero;"/>
        <path d="M101.135,46.223C101.435,46.594 101.724,46.984 101.978,47.413C101.724,46.984 101.438,46.594 101.135,46.223Z" style="fill:rgb(214,36,49);fill-rule:nonzero;"/>
        <path d="M99.276,58.169C98.95,58.259 98.618,58.308 98.283,58.339C98.618,58.308 98.95,58.259 99.276,58.169Z" style="fill:rgb(214,36,49);fill-rule:nonzero;"/>
        <path d="M97.619,43.566C97.932,43.695 98.241,43.845 98.547,44.016C98.241,43.845 97.932,43.695 97.619,43.566Z" style="fill:rgb(214,36,49);fill-rule:nonzero;"/>
        <path d="M98.784,44.144C99.152,44.369 99.511,44.628 99.856,44.916C99.511,44.628 99.152,44.369 98.784,44.144Z" style="fill:rgb(214,36,49);fill-rule:nonzero;"/>
        <path d="M97.766,58.373C97.854,58.373 97.941,58.36 98.032,58.356C97.778,58.366 97.522,58.356 97.268,58.334C97.434,58.347 97.6,58.373 97.766,58.373Z" style="fill:rgb(214,36,49);fill-rule:nonzero;"/>
        <path d="M101.978,47.413C101.724,46.984 101.435,46.594 101.135,46.223C101.047,46.117 100.959,46.016 100.868,45.915C100.623,45.639 100.371,45.383 100.107,45.145C100.022,45.069 99.939,44.987 99.856,44.916C99.511,44.628 99.152,44.369 98.784,44.144C98.706,44.098 98.625,44.059 98.547,44.016C98.241,43.845 97.932,43.695 97.619,43.566C97.505,43.521 97.392,43.477 97.28,43.438C96.933,43.316 96.584,43.22 96.232,43.155C96.186,43.145 96.137,43.129 96.088,43.122C95.686,43.057 95.282,43.037 94.885,43.051C94.818,43.054 94.755,43.058 94.692,43.063C94.309,43.09 93.931,43.149 93.564,43.252C93.518,43.266 93.472,43.286 93.427,43.301C93.042,43.422 92.668,43.575 92.314,43.786C89.252,45.611 88.625,50.187 90.897,54.014C91.125,54.398 91.379,54.753 91.645,55.092C91.731,55.199 91.825,55.297 91.913,55.399C92.102,55.621 92.297,55.835 92.502,56.034C92.609,56.14 92.719,56.239 92.834,56.338C93.032,56.514 93.241,56.68 93.449,56.836C93.566,56.921 93.684,57.007 93.801,57.087C94.031,57.24 94.27,57.373 94.507,57.501C94.611,57.556 94.712,57.618 94.816,57.666C95.16,57.832 95.513,57.974 95.868,58.081C95.884,58.087 95.903,58.088 95.92,58.093C96.255,58.192 96.594,58.262 96.929,58.308C97.043,58.324 97.153,58.324 97.268,58.334C97.522,58.356 97.778,58.366 98.032,58.356C98.117,58.352 98.198,58.347 98.283,58.339C98.618,58.308 98.95,58.259 99.276,58.169L101.91,62.777L104.383,61.202L101.76,56.608C103.723,54.425 103.909,50.655 101.978,47.413Z" style="fill:rgb(214,36,49);fill-rule:nonzero;"/>
        <path d="M93.801,57.087C93.684,57.007 93.566,56.921 93.449,56.836C93.566,56.921 93.684,57.007 93.801,57.087Z" style="fill:rgb(214,36,49);fill-rule:nonzero;"/>
        <path d="M98.283,58.339C98.198,58.347 98.117,58.352 98.032,58.356C98.117,58.352 98.198,58.347 98.283,58.339Z" style="fill:rgb(214,36,49);fill-rule:nonzero;"/>
        <path d="M94.816,57.666C94.712,57.618 94.611,57.556 94.507,57.501C94.611,57.556 94.712,57.618 94.816,57.666Z" style="fill:rgb(214,36,49);fill-rule:nonzero;"/>
        <path d="M95.92,58.093C95.903,58.088 95.884,58.087 95.868,58.081C95.884,58.087 95.903,58.088 95.92,58.093Z" style="fill:rgb(214,36,49);fill-rule:nonzero;"/>
        <path d="M97.268,58.334C97.153,58.324 97.043,58.324 96.929,58.308C97.043,58.324 97.153,58.324 97.268,58.334Z" style="fill:rgb(214,36,49);fill-rule:nonzero;"/>
        <path d="M97.28,43.438C97.392,43.477 97.505,43.521 97.619,43.566C97.505,43.521 97.395,43.477 97.28,43.438Z" style="fill:rgb(214,36,49);fill-rule:nonzero;"/>
        <path d="M92.834,56.338C92.719,56.239 92.609,56.14 92.502,56.034C92.609,56.14 92.719,56.237 92.834,56.338Z" style="fill:rgb(214,36,49);fill-rule:nonzero;"/>
        <path d="M98.547,44.016C98.625,44.059 98.706,44.098 98.784,44.144C98.706,44.098 98.625,44.059 98.547,44.016Z" style="fill:rgb(214,36,49);fill-rule:nonzero;"/>
        <path d="M100.868,45.915C100.959,46.016 101.047,46.117 101.135,46.223C101.047,46.117 100.959,46.016 100.868,45.915Z" style="fill:rgb(214,36,49);fill-rule:nonzero;"/>
        <path d="M99.856,44.916C99.939,44.987 100.022,45.069 100.107,45.145C100.022,45.069 99.939,44.987 99.856,44.916Z" style="fill:rgb(214,36,49);fill-rule:nonzero;"/>
        <path d="M91.913,55.399C91.825,55.297 91.731,55.199 91.645,55.092C91.731,55.199 91.821,55.297 91.913,55.399Z" style="fill:rgb(214,36,49);fill-rule:nonzero;"/>
        <path d="M93.427,43.301C93.472,43.286 93.518,43.266 93.564,43.252C93.518,43.266 93.472,43.286 93.427,43.301Z" style="fill:rgb(214,36,49);fill-rule:nonzero;"/>
        <path d="M96.088,43.122C96.137,43.129 96.186,43.145 96.232,43.155C96.184,43.145 96.137,43.129 96.088,43.122Z" style="fill:rgb(214,36,49);fill-rule:nonzero;"/>
        <path d="M94.692,43.063C94.755,43.058 94.818,43.054 94.885,43.051C94.818,43.054 94.755,43.058 94.692,43.063Z" style="fill:rgb(214,36,49);fill-rule:nonzero;"/>
        <path d="M106.269,80.42C106.249,79.082 107.317,77.989 108.648,77.966C109.983,77.946 111.077,79.011 111.096,80.346C111.119,81.68 110.051,82.778 108.72,82.797C107.385,82.817 106.287,81.752 106.269,80.42Z" style="fill:rgb(214,36,49);"/>
        <path d="M89.892,91.218C89.901,91.241 89.914,91.272 89.924,91.296C89.914,91.272 89.901,91.241 89.892,91.218Z" style="fill:rgb(214,36,49);fill-rule:nonzero;"/>
        <path d="M87.229,85.12C87.766,86.345 88.642,88.344 89.312,89.883C88.642,88.344 87.766,86.345 87.229,85.12Z" style="fill:rgb(214,36,49);fill-rule:nonzero;"/>
        <path d="M89.96,91.376C90.009,91.492 90.058,91.602 90.093,91.689C90.058,91.602 90.009,91.492 89.96,91.376Z" style="fill:rgb(214,36,49);fill-rule:nonzero;"/>
        <path d="M86.743,84.014C86.743,84.014 86.789,84.116 86.855,84.268C86.789,84.116 86.743,84.014 86.743,84.014Z" style="fill:rgb(214,36,49);fill-rule:nonzero;"/>
        <path d="M89.96,91.376C89.946,91.348 89.936,91.327 89.924,91.296C89.914,91.272 89.901,91.241 89.892,91.218C89.735,90.857 89.536,90.395 89.312,89.883C88.642,88.344 87.766,86.345 87.229,85.12C87.065,84.75 86.939,84.458 86.855,84.268C86.789,84.116 86.743,84.014 86.743,84.014L69.013,83.666L56.562,64.595L50.877,74.228L65.001,92.001L90.233,92.032C90.236,92.032 90.185,91.907 90.093,91.689C90.058,91.602 90.009,91.492 89.96,91.376Z" style="fill:rgb(214,36,49);fill-rule:nonzero;"/>
        <path d="M63.771,92.694L49.726,75.303L35.276,97.939L61.741,97.878L64.869,93.002L64.241,93.002L63.771,92.694Z" style="fill:rgb(214,36,49);fill-rule:nonzero;"/>
        <path d="M105.771,62.295L105.279,62.608L102.805,64.183L101.331,65.121L100.464,63.604L98.957,60.969L91.528,67.743C87.929,67.841 85.585,67.743 81.128,67.553L58.495,64.828L69.876,82.39L71.638,82.454L76.161,75.405C90.308,75.752 94.865,74.81 96.311,73.498L107.476,63.14L105.771,62.295Z" style="fill:rgb(214,36,49);fill-rule:nonzero;"/>
        <path d="M86.855,84.268C86.939,84.458 87.065,84.75 87.229,85.12C87.065,84.75 86.939,84.458 86.855,84.268Z" style="fill:rgb(214,36,49);fill-rule:nonzero;"/>
        <path d="M90.233,92.032C90.236,92.034 90.185,91.908 90.093,91.689C90.185,91.907 90.236,92.032 90.233,92.032Z" style="fill:rgb(214,36,49);fill-rule:nonzero;"/>
        <path d="M89.924,91.296C89.936,91.327 89.946,91.348 89.96,91.376C89.946,91.348 89.936,91.327 89.924,91.296Z" style="fill:rgb(214,36,49);fill-rule:nonzero;"/>
        <path d="M89.312,89.883C89.536,90.395 89.735,90.857 89.892,91.218C89.735,90.857 89.536,90.395 89.312,89.883Z" style="fill:rgb(214,36,49);fill-rule:nonzero;"/>
    </g>
</svg>
