<?xml version="1.0" encoding="UTF-8" standalone="no"?><!DOCTYPE svg PUBLIC "-//W3C//DTD SVG 1.1//EN" "http://www.w3.org/Graphics/SVG/1.1/DTD/svg11.dtd"><svg width="100%" height="100%" viewBox="0 0 1024 1024" version="1.1" xmlns="http://www.w3.org/2000/svg" xmlns:xlink="http://www.w3.org/1999/xlink" xml:space="preserve" style="fill-rule:evenodd;clip-rule:evenodd;stroke-linejoin:round;stroke-miterlimit:1.41421;"><path id="Gesang" d="M501.578,421.171l345.948,-56.108l0,469.038c0,38.821 -28.924,69.826 -74.074,81.252c-49.609,12.275 -97.435,-8.495 -106.991,-46.509c-9.514,-38.099 22.978,-78.916 72.545,-91.318c22.384,-5.522 44.47,-4.375 62.903,2.123l0,-282.62l-253.525,46.382l-1.189,351.512c-0.213,33.257 -30.284,66.004 -73.437,76.665c-48.973,12.275 -100.366,-11.043 -105.845,-45.914c-9.387,-37.632 22.681,-78.024 71.823,-90.342c22.086,-5.521 43.706,-4.417 61.842,1.954l0,-416.115Zm-130.055,172.019l1.232,-434.464c0,0 94.632,-5.054 187.182,140.078c0,0 0.255,-74.923 -70.889,-129.757c-138.931,-97.01 -138.549,-119.945 -138.549,-119.945c-26.504,3.1 -29.222,23.233 -29.222,23.233l0,457.484c-19.878,-6.966 -43.663,-8.197 -68.043,-2.124c-53.942,13.337 -89.195,57.892 -78.874,99.304c6.074,38.269 62.479,63.965 116.378,50.416c47.359,-11.808 80.446,-47.57 80.7,-84.225l0.085,0Zm251.615,-280.751c16.479,-4.12 27.99,-16.565 28.075,-29.307l0.042,0l0.425,-151.164c0,0 32.917,-1.742 65.112,48.76c0,0 0.043,-26.079 -24.72,-45.108c-48.335,-33.766 -48.165,-41.751 -48.165,-41.751c-9.217,1.062 -10.193,8.07 -10.193,8.07l0,159.191c-6.881,-2.463 -15.121,-2.888 -23.616,-0.807c-18.816,4.63 -31.006,20.175 -27.438,34.574c2.124,13.337 21.747,22.256 40.478,17.542Zm163.099,0.382c11.468,-2.846 19.453,-11.553 19.538,-20.43l0.297,-105.292c0,0 22.936,-1.232 45.362,33.936c0,0 0.042,-18.179 -17.16,-31.43c-33.681,-23.531 -33.596,-29.095 -33.596,-29.095c-6.414,0.765 -7.093,5.649 -7.093,5.649l0,110.899c-4.8,-1.699 -10.576,-1.996 -16.48,-0.51c-13.082,3.228 -21.619,14.017 -19.113,24.04c1.444,9.302 15.12,15.546 28.245,12.233Z" style="fill:#d62431;fill-rule:nonzero;"/></svg>