<?xml version="1.0" encoding="UTF-8" standalone="no"?>
<!DOCTYPE svg PUBLIC "-//W3C//DTD SVG 1.1//EN" "http://www.w3.org/Graphics/SVG/1.1/DTD/svg11.dtd">
<svg width="100%" height="100%" viewBox="0 0 592 592" version="1.1" xmlns="http://www.w3.org/2000/svg" xmlns:xlink="http://www.w3.org/1999/xlink" xml:space="preserve" style="fill-rule:evenodd;clip-rule:evenodd;stroke-linejoin:round;stroke-miterlimit:1.41421;">
    <g transform="matrix(4.16667,0,0,4.16667,0,0)">
        <path d="M126.348,119.363C126.422,114.47 122.513,110.445 117.622,110.373C112.736,110.302 108.719,114.208 108.647,119.1C108.574,123.99 112.477,128.007 117.362,128.081C122.254,128.153 126.276,124.249 126.348,119.363Z" style="fill:rgb(214,36,49);"/>
        <path d="M72.548,80.893L77.694,82.697L89.996,91.97C92.825,91.318 97.733,84.716 97.733,84.716C97.489,84.536 75.379,66.475 75.379,66.475C75.379,66.475 55.801,71.002 55.811,71.367C56.328,87.331 66.11,96.601 66.11,96.601L86.771,126.624L97.709,126.229L76.79,92.946L72.548,80.893Z" style="fill:rgb(214,36,49);fill-rule:nonzero;"/>
        <path d="M96.129,89.264C94.371,91.173 92.174,93.178 90.37,93.595L89.612,93.769L88.992,93.302L79.879,86.43L79.662,86.627L89.911,98.005L96.386,93.395L96.129,89.264Z" style="fill:rgb(214,36,49);"/>
        <path d="M22.274,27.971L53.371,38.134C53.996,34.418 54.609,31.432 54.956,29.819L17.774,19.202L22.274,27.971Z" style="fill:rgb(214,36,49);fill-rule:nonzero;"/>
        <path d="M101.805,66.499L87.74,57.462C86.093,54.341 85.055,47.095 83.245,41.916C82.128,44.37 80.123,48.992 78.388,54.106C79.808,58.8 81.767,61.909 82.846,62.87L102.041,75.651L101.805,66.499Z" style="fill:rgb(214,36,49);fill-rule:nonzero;"/>
        <path d="M74.056,21.091C73.934,20.994 73.782,20.932 73.651,20.844C73.375,20.659 73.105,20.466 72.796,20.328C72.61,20.247 72.401,20.205 72.207,20.139C71.917,20.041 71.636,19.929 71.325,19.868C71.097,19.822 70.853,19.817 70.615,19.791C70.313,19.757 70.018,19.709 69.705,19.706C69.385,19.705 69.056,19.746 68.727,19.775C68.494,19.796 68.267,19.796 68.03,19.833C67.679,19.889 67.327,19.991 66.974,20.082C66.754,20.139 66.536,20.173 66.318,20.244C65.931,20.369 65.547,20.543 65.163,20.712C64.985,20.79 64.801,20.846 64.626,20.934C64.072,21.21 63.528,21.533 63.008,21.902C59.427,24.451 59.845,27.49 62.049,30.719C62.243,31.002 62.461,31.288 62.689,31.573C62.741,31.635 62.79,31.699 62.842,31.76C63.074,32.042 63.32,32.32 63.581,32.594C63.615,32.629 63.65,32.662 63.685,32.698C63.927,32.947 64.181,33.188 64.443,33.424C64.499,33.473 64.552,33.523 64.607,33.572C64.896,33.823 65.192,34.06 65.498,34.285C65.557,34.329 65.615,34.37 65.675,34.412C65.96,34.615 66.252,34.806 66.546,34.978C66.585,35.001 66.624,35.027 66.663,35.05C66.984,35.232 67.308,35.388 67.633,35.525C67.703,35.556 67.775,35.583 67.847,35.611C68.179,35.742 68.512,35.854 68.844,35.927C68.848,35.927 68.854,35.927 68.859,35.929C69.183,35.998 69.502,36.03 69.821,36.038C69.912,36.041 70.005,36.046 70.098,36.042C70.182,36.039 70.267,36.033 70.352,36.025C70.481,36.012 70.61,35.992 70.739,35.968C70.82,35.952 70.901,35.935 70.983,35.914C71.116,35.88 71.25,35.831 71.382,35.781C71.452,35.753 71.52,35.732 71.588,35.701C71.787,35.611 71.979,35.507 72.168,35.378C75.397,33.166 77.249,25.388 75.048,22.163C74.769,21.754 74.435,21.397 74.056,21.091Z" style="fill:rgb(214,36,49);fill-rule:nonzero;"/>
        <path d="M73.336,36.57C73.258,36.63 73.187,36.702 73.106,36.755C72.171,37.395 71.106,37.719 69.944,37.719C66.416,37.719 62.666,34.578 60.672,31.658C60.618,31.581 60.579,31.508 60.53,31.432L56.652,29.875C55.56,34.967 50.97,55.962 55.413,69.295C57.661,68.576 62.913,67.559 74.579,64.712C75.691,54.99 80.746,43.283 82.226,40.138L73.336,36.57Z" style="fill:rgb(214,36,49);fill-rule:nonzero;"/>
    </g>
</svg>
