<?xml version="1.0" encoding="UTF-8" standalone="no"?>
<!DOCTYPE svg PUBLIC "-//W3C//DTD SVG 1.1//EN" "http://www.w3.org/Graphics/SVG/1.1/DTD/svg11.dtd">
<svg width="100%" height="100%" viewBox="0 0 592 592" version="1.1" xmlns="http://www.w3.org/2000/svg" xmlns:xlink="http://www.w3.org/1999/xlink" xml:space="preserve" style="fill-rule:evenodd;clip-rule:evenodd;stroke-linejoin:round;stroke-miterlimit:1.41421;">
    <g transform="matrix(4.16667,0,0,4.16667,0,0)">
        <path d="M66.603,8.607C63.327,8.654 60.708,11.351 60.755,14.632C60.802,17.907 63.498,20.522 66.777,20.475C70.054,20.425 72.671,17.733 72.618,14.454C72.569,11.175 69.878,8.558 66.603,8.607Z" style="fill:rgb(214,36,49);fill-rule:nonzero;"/>
        <path d="M67.435,35.949C68.346,32.233 73.497,30.268 78.38,31.533C82.54,32.619 83.2,35.538 82.292,39.256C81.384,42.97 78.337,47.913 74.623,47.016C70.903,46.122 66.528,39.664 67.435,35.949Z" style="fill:rgb(214,36,49);"/>
        <path d="M57.508,76.373C57.508,76.373 57.23,76.635 56.795,77.043C54.669,79.045 48.327,84.995 47.167,85.862C47.134,85.888 47.13,85.885 47.105,85.901C47.062,85.93 47.007,85.969 46.994,85.969L46.992,85.969L46.367,78.263L35.218,77.854C35.702,90.742 41.978,99.175 43.97,101.721L57.508,92.174L58.449,93.447L45.562,103.789L16.329,119.556L15.432,132.77L50.97,113.335C50.97,113.335 64.541,102.715 69.217,97.424C78.396,87.037 57.508,76.373 57.508,76.373Z" style="fill:rgb(214,36,49);fill-rule:nonzero;"/>
        <path d="M65.861,47.907C65.818,47.907 61.951,62.649 59.496,72.036C59.447,72.219 59.399,72.4 59.352,72.58C59.123,73.459 58.908,74.284 58.71,75.038C58.703,75.065 58.696,75.087 58.69,75.114C60.794,76.249 70.27,81.682 72.657,88.663L86.105,64.194L84.965,51.24L65.861,47.907Z" style="fill:rgb(214,36,49);fill-rule:nonzero;"/>
        <path d="M64.373,47.22L50.363,40.794C51.958,31.033 60.161,25.555 60.161,25.555C60.161,25.555 54.337,18.755 54.072,18.975C42.036,28.976 42.033,43.813 42.033,43.813C41.076,46.01 55.038,53.847 61.613,57.389C61.733,56.93 64.235,47.516 64.373,47.22Z" style="fill:rgb(214,36,49);fill-rule:nonzero;"/>
        <path d="M111.111,73.962L99.528,65.784L86.716,52.128L87.765,64.047L87.81,64.554L87.565,64.996L86.73,66.519L94.284,74.495L114.011,87.277L111.111,73.962Z" style="fill:rgb(214,36,49);fill-rule:nonzero;"/>
    </g>
</svg>
