<?xml version="1.0" encoding="UTF-8" standalone="no"?>
<!DOCTYPE svg PUBLIC "-//W3C//DTD SVG 1.1//EN" "http://www.w3.org/Graphics/SVG/1.1/DTD/svg11.dtd">
<svg width="100%" height="100%" viewBox="0 0 592 592" version="1.1" xmlns="http://www.w3.org/2000/svg" xmlns:xlink="http://www.w3.org/1999/xlink" xml:space="preserve" style="fill-rule:evenodd;clip-rule:evenodd;stroke-linejoin:round;stroke-miterlimit:1.41421;">
    <g transform="matrix(4.16667,0,0,4.16667,0,0)">
        <path d="M47.382,45.012L60.299,44.781L45.769,28.064L45.369,43.428C45.369,43.428 45.823,44.017 46.604,45.027L47.382,45.012Z" style="fill:rgb(214,36,49);fill-rule:nonzero;"/>
        <path d="M89.916,99.063L98.798,98.109L110.82,58.5L101.23,63.768L89.916,99.063Z" style="fill:rgb(214,36,49);fill-rule:nonzero;"/>
        <path d="M57.814,101.751C57.885,100.973 58.067,100.381 58.36,99.972C58.728,99.447 59.525,99.059 60.232,99.059C61.352,99.059 62.058,99.766 62.058,100.905C62.058,101.158 62.035,101.452 62.016,101.751L61.583,105.801L57.411,105.801L57.814,101.751ZM123.813,105.801L95.719,105.801L96.24,100.882C96.263,100.677 96.312,100.495 96.312,100.289C96.312,100.207 96.293,100.136 96.289,100.055L91.576,100.56C91.591,100.677 91.63,100.778 91.63,100.905C91.63,101.158 91.608,101.452 91.588,101.751L91.156,105.801L86.986,105.801L87.386,101.751C87.438,101.18 87.572,100.743 87.748,100.371L88.33,98.554L89.326,95.446C87.22,95.593 85.456,96.288 84.398,97.506C83.646,98.35 83.076,99.721 82.962,100.882L82.438,105.801L66.145,105.801L66.668,100.882C66.692,100.677 66.739,100.495 66.739,100.289C66.739,97.162 64.48,95.385 60.531,95.385C58.067,95.385 56.013,96.137 54.825,97.506C54.071,98.35 53.503,99.721 53.39,100.882L52.865,105.801L15.278,105.801L13.94,119.588L125.15,119.588L123.813,105.801Z" style="fill:rgb(214,36,49);fill-rule:nonzero;"/>
        <path d="M102.93,36.527C102.416,36.282 101.889,36.089 101.357,35.922C101.208,35.873 101.059,35.834 100.908,35.791C100.492,35.678 100.075,35.588 99.662,35.521C99.535,35.5 99.404,35.473 99.277,35.456C98.753,35.39 98.232,35.355 97.721,35.362C97.633,35.364 97.552,35.371 97.464,35.375C97.021,35.391 96.588,35.435 96.168,35.507C96.074,35.521 95.976,35.533 95.882,35.552C95.423,35.643 94.98,35.772 94.56,35.93C94.469,35.964 94.381,36.005 94.293,36.044C93.919,36.2 93.564,36.382 93.239,36.594C93.19,36.626 93.131,36.654 93.083,36.688C92.731,36.929 92.421,37.209 92.142,37.515C92.077,37.587 92.015,37.661 91.953,37.737C91.686,38.064 91.442,38.412 91.263,38.803C89.665,42.308 92.773,49.555 96.283,51.16C96.523,51.268 96.767,51.345 97.008,51.402C97.096,51.421 97.181,51.428 97.269,51.441C97.425,51.465 97.585,51.487 97.744,51.492C97.822,51.493 97.897,51.488 97.975,51.487C98.31,51.475 98.646,51.436 98.978,51.345C99.003,51.338 99.03,51.327 99.056,51.319C99.378,51.226 99.701,51.094 100.017,50.936C100.072,50.911 100.124,50.889 100.176,50.862C100.495,50.692 100.808,50.491 101.117,50.267C101.179,50.222 101.24,50.176 101.303,50.129C101.608,49.895 101.904,49.644 102.194,49.37C102.233,49.331 102.272,49.289 102.314,49.248C102.592,48.975 102.861,48.687 103.119,48.386C103.145,48.355 103.174,48.328 103.2,48.296C103.464,47.981 103.715,47.652 103.949,47.318C103.994,47.256 104.04,47.193 104.082,47.131C104.307,46.802 104.519,46.469 104.714,46.135C104.746,46.078 104.779,46.021 104.812,45.964C105.007,45.616 105.189,45.269 105.342,44.931C106.943,41.421 106.843,38.396 102.93,36.527Z" style="fill:rgb(214,36,49);fill-rule:nonzero;"/>
        <path d="M97.855,53.169C97.07,53.169 96.308,53.003 95.589,52.675C93.61,51.77 91.855,49.618 90.687,47.138L88.041,45.876L83.278,68.389L87.337,83.487L96.039,74.508L99.645,63.259L99.847,62.627L100.43,62.307L110.02,57.04L110.688,56.672L101.225,52.161C100.156,52.772 99.023,53.169 97.855,53.169Z" style="fill:rgb(214,36,49);fill-rule:nonzero;"/>
        <path d="M86.315,45.984L47.411,46.679L43.78,53.353L84.619,53.993L86.315,45.984Z" style="fill:rgb(214,36,49);fill-rule:nonzero;"/>
        <path d="M81.881,69.617L69.548,55.424L54.446,55.188C62.198,65.242 72.104,78.119 72.115,78.297L16.495,87.191L27.011,95.897C27.011,95.897 63.607,91.867 70.867,90.886C78.532,89.849 83.441,86.915 86,84.931L85.729,83.92L81.881,69.617Z" style="fill:rgb(214,36,49);fill-rule:nonzero;"/>
    </g>
</svg>
