<?xml version="1.0" encoding="UTF-8" standalone="no"?>
<!DOCTYPE svg PUBLIC "-//W3C//DTD SVG 1.1//EN" "http://www.w3.org/Graphics/SVG/1.1/DTD/svg11.dtd">
<svg width="100%" height="100%" viewBox="0 0 592 592" version="1.1" xmlns="http://www.w3.org/2000/svg" xmlns:xlink="http://www.w3.org/1999/xlink" xml:space="preserve" style="fill-rule:evenodd;clip-rule:evenodd;stroke-linejoin:round;stroke-miterlimit:1.41421;">
    <g transform="matrix(4.16667,0,0,4.16667,0,0)">
        <path d="M98.495,34.572C99.751,30.869 105.175,29.336 110.031,31.08C114.172,32.566 114.582,35.607 113.325,39.309C112.069,43.015 108.527,47.776 104.823,46.523C101.118,45.268 97.238,38.273 98.495,34.572Z" style="fill:rgb(214,36,49);"/>
        <path d="M82.9,43.214C77.334,40.369 76.007,39.229 71.968,37.528L55.685,44.28L50.428,37.585L68.511,29.838C69.923,28.703 76.821,29.62 90.995,36.584L82.9,43.214Z" style="fill:rgb(214,36,49);fill-rule:nonzero;"/>
        <path d="M61.306,62.134L52.755,72.799C52.755,72.799 69.996,76.519 70.004,76.532C70.189,76.542 79.962,79.088 77.303,84.019L68.889,103.79L79.943,108.058L89.969,82.307C94.653,70.493 76.567,63.815 61.306,62.134Z" style="fill:rgb(214,36,49);fill-rule:nonzero;"/>
        <path d="M51.207,74.091L22.656,107.892L27.761,118.331L64.334,76.926C60.341,76.063 55.116,74.933 52.419,74.351L51.207,74.091Z" style="fill:rgb(214,36,49);fill-rule:nonzero;"/>
        <path d="M119.667,43.95C119.667,43.95 117.372,52.848 109.276,57.252L99.637,47.14L91.704,52.257C91.704,52.257 91.913,52.464 92.28,52.822C92.287,52.828 92.293,52.833 92.296,52.84C92.469,53.006 92.68,53.213 92.915,53.439C92.948,53.47 92.98,53.501 93.012,53.532C93.253,53.763 93.52,54.021 93.813,54.3C93.849,54.334 93.885,54.368 93.924,54.402C94.22,54.687 94.545,54.993 94.887,55.315C94.93,55.354 94.972,55.395 95.014,55.434C95.366,55.763 95.734,56.106 96.118,56.461C96.157,56.497 96.196,56.533 96.235,56.569C96.635,56.936 97.049,57.316 97.475,57.702L97.528,57.75C98.422,58.556 99.36,59.386 100.305,60.192C100.321,60.205 100.334,60.22 100.351,60.232C100.806,60.621 101.265,61.004 101.718,61.375C101.75,61.404 101.786,61.433 101.821,61.461C102.258,61.819 102.688,62.163 103.114,62.495C103.163,62.534 103.215,62.573 103.264,62.612C103.677,62.932 104.081,63.235 104.475,63.52C104.526,63.557 104.579,63.595 104.631,63.631C105.019,63.909 105.39,64.165 105.747,64.396C105.796,64.427 105.842,64.456 105.891,64.485C106.242,64.71 106.577,64.91 106.894,65.076C106.929,65.098 106.968,65.115 107.004,65.135C107.319,65.296 107.609,65.43 107.873,65.52C107.896,65.529 107.915,65.534 107.941,65.54C108.205,65.628 108.446,65.682 108.647,65.682C108.71,65.682 108.762,65.669 108.817,65.659C108.862,65.652 108.911,65.652 108.95,65.64C109.042,65.61 109.12,65.566 109.185,65.506C109.185,65.506 122.231,60.94 127.326,47.277C127.437,46.979 119.667,43.95 119.667,43.95Z" style="fill:rgb(214,36,49);fill-rule:nonzero;"/>
        <path d="M92.797,55.633L92.661,55.504L91.864,54.739L91.759,54.639L91.369,54.261L91.141,54.038L91.088,53.991L91.083,53.984L90.532,53.442L89.054,51.982L90.802,50.857L98.735,45.74L98.784,45.709L92.423,37.467L64.29,60.923C70.217,61.792 76.505,63.408 81.632,65.866L93.8,56.582L93.742,56.528C93.397,56.203 93.071,55.895 92.797,55.633Z" style="fill:rgb(214,36,49);fill-rule:nonzero;"/>
    </g>
</svg>
