<?xml version="1.0" encoding="UTF-8" standalone="no"?>
<!DOCTYPE svg PUBLIC "-//W3C//DTD SVG 1.1//EN" "http://www.w3.org/Graphics/SVG/1.1/DTD/svg11.dtd">
<svg width="100%" height="100%" viewBox="0 0 592 592" version="1.1" xmlns="http://www.w3.org/2000/svg" xmlns:xlink="http://www.w3.org/1999/xlink" xml:space="preserve" style="fill-rule:evenodd;clip-rule:evenodd;stroke-miterlimit:1.41421;">
    <g transform="matrix(4.16667,0,0,4.16667,0,0)">
        <path d="M38.809,50.406L38.859,50.363L31.727,22.768L24.425,21.814L32.677,55.547L38.809,50.406Z" style="fill:rgb(214,36,49);fill-rule:nonzero;"/>
        <path d="M39.436,101.9C39.482,94.308 41.261,92.08 41.261,92.08C41.281,92.022 41.344,91.936 41.376,91.871C37.432,89.464 32.714,86.577 32.37,86.328L32.206,86.209C32.026,86.525 31.835,86.834 31.687,87.167C30.418,90.126 29.888,94.187 29.696,98.532C29.507,102.874 32.017,121.771 32.017,121.771L42.977,122.454C42.17,120.117 40.977,114.448 40.875,113.871C40.529,111.931 39.417,105.734 39.436,101.9Z" style="fill:rgb(214,36,49);fill-rule:nonzero;"/>
        <path d="M41.845,50.233L43.369,50.696C46.811,50.917 52.308,46.918 52.689,43.561C53.071,40.138 49.332,36.888 44.814,36.454C40.958,36.088 39.491,38.353 39.102,41.774C38.767,44.702 39.493,48.846 41.845,50.233Z" style="fill:rgb(214,36,49);fill-rule:nonzero;"/>
        <path d="M64.903,91.03C65.018,91.025 65.118,91.021 65.224,91.017C65.736,90.998 66.156,90.981 66.451,90.972C66.776,90.958 66.975,90.949 66.975,90.949C64.945,86.955 48.861,54.762 48.861,54.762L40.289,52.172L33.8,57.613L40.142,77.185L33.715,84.455C34.128,84.752 45.014,91.391 45.014,91.391C45.063,91.414 45.196,91.433 45.369,91.449C45.418,91.453 45.486,91.457 45.545,91.461C45.699,91.471 45.879,91.48 46.098,91.486C46.174,91.488 46.25,91.49 46.336,91.491C46.61,91.497 46.915,91.502 47.261,91.502C47.307,91.503 47.351,91.503 47.399,91.503C48.25,91.504 49.281,91.493 50.421,91.474C50.488,91.472 50.56,91.471 50.629,91.469C51.15,91.459 51.688,91.448 52.243,91.435C52.306,91.433 52.363,91.433 52.424,91.432C55.357,91.361 58.654,91.254 61.372,91.158C62.731,91.112 63.958,91.066 64.903,91.03Z" style="fill:rgb(214,36,49);fill-rule:nonzero;"/>
        <path d="M68.104,93.033L54.442,93.033L74.63,122.454L86.496,122.454L68.104,93.033Z" style="fill:rgb(214,36,49);fill-rule:nonzero;"/>
        <path d="M117.064,64.295C115.4,74.73 105.596,81.842 95.16,80.179C84.727,78.515 77.616,68.709 79.278,58.275C80.943,47.84 90.748,40.73 101.184,42.393C111.616,44.056 118.728,53.863 117.064,64.295Z" style="fill:rgb(214,36,49);stroke:rgb(214,36,49);stroke-width:1.41px;"/>
        <path d="M80.033,50.199L51.406,54.695C52.022,55.928 53.187,58.26 54.641,61.168L77.322,57.169C77.821,54.636 78.753,52.29 80.033,50.199Z" style="fill:rgb(214,36,49);fill-rule:nonzero;"/>
    </g>
</svg>
