<?xml version="1.0" encoding="UTF-8" standalone="no"?>
<!DOCTYPE svg PUBLIC "-//W3C//DTD SVG 1.1//EN" "http://www.w3.org/Graphics/SVG/1.1/DTD/svg11.dtd">
<svg width="100%" height="100%" viewBox="0 0 592 592" version="1.1" xmlns="http://www.w3.org/2000/svg" xmlns:xlink="http://www.w3.org/1999/xlink" xml:space="preserve" style="fill-rule:evenodd;clip-rule:evenodd;stroke-linejoin:round;stroke-miterlimit:1.41421;">
    <g transform="matrix(4.16667,0,0,4.16667,0,0)">
        <g transform="matrix(1,0,0,1,0.534181,-23.0898)">
            <path d="M86.52,88.336C87.008,84.478 91.982,81.91 97.06,82.645C101.384,83.277 102.387,86.151 101.901,90.009C101.41,93.866 98.903,99.205 95.052,98.717C91.191,98.224 86.032,92.189 86.52,88.336Z" style="fill:rgb(214,36,49);"/>
        </g>
        <g transform="matrix(1,0,0,1,0.534181,-23.0898)">
            <path d="M60.461,64.072C60.461,64.072 60.432,64.062 60.38,64.051C60.367,64.048 60.338,64.043 60.321,64.038C60.27,64.026 60.211,64.015 60.126,64C60.089,63.995 60.032,63.991 59.988,63.984C59.898,63.973 59.807,63.961 59.69,63.952C59.625,63.947 59.539,63.945 59.465,63.94C59.338,63.933 59.211,63.927 59.06,63.926C58.855,63.924 58.632,63.929 58.378,63.942C58.333,63.943 58.28,63.948 58.235,63.952C58.01,63.966 57.766,63.987 57.502,64.016C57.405,64.028 57.301,64.041 57.196,64.054C56.942,64.087 56.671,64.127 56.384,64.176C56.282,64.194 56.188,64.209 56.082,64.228C55.692,64.3 55.276,64.386 54.828,64.492C54.728,64.516 54.615,64.546 54.511,64.572C54.147,64.663 53.762,64.765 53.358,64.881C53.196,64.928 53.028,64.977 52.859,65.027C52.434,65.156 51.986,65.301 51.52,65.459C51.389,65.503 51.269,65.542 51.135,65.587C50.54,65.796 49.911,66.032 49.251,66.292C49.076,66.36 48.891,66.438 48.713,66.512C48.192,66.724 47.652,66.951 47.091,67.197C46.861,67.298 46.632,67.399 46.396,67.506C45.738,67.804 45.053,68.125 44.342,68.472C44.221,68.53 44.107,68.58 43.987,68.64C43.16,69.049 42.288,69.5 41.389,69.98C41.132,70.115 40.865,70.264 40.605,70.405C39.905,70.786 39.182,71.189 38.437,71.616C38.144,71.784 37.854,71.948 37.555,72.124C36.536,72.717 35.491,73.339 34.392,74.019L39.062,79.752C39.062,79.752 39.104,79.728 39.163,79.699C39.186,79.686 39.187,79.686 39.218,79.67C39.299,79.628 39.42,79.566 39.568,79.488C39.594,79.474 39.617,79.462 39.645,79.449C39.804,79.364 39.989,79.269 40.208,79.159C40.245,79.14 40.284,79.12 40.323,79.1C40.543,78.99 40.78,78.869 41.047,78.736C41.07,78.723 41.09,78.713 41.112,78.703C41.384,78.566 41.686,78.42 41.998,78.267C42.064,78.234 42.128,78.202 42.196,78.17C42.507,78.019 42.836,77.86 43.18,77.697C43.259,77.658 43.339,77.623 43.42,77.584C43.775,77.418 44.143,77.245 44.524,77.069C44.589,77.04 44.657,77.011 44.724,76.978C45.097,76.808 45.478,76.64 45.868,76.467C45.917,76.444 45.964,76.422 46.015,76.402C46.422,76.223 46.835,76.044 47.255,75.868C47.346,75.829 47.438,75.79 47.528,75.754C47.942,75.582 48.358,75.412 48.778,75.246C48.87,75.211 48.961,75.175 49.052,75.139C49.481,74.97 49.91,74.807 50.336,74.65C50.401,74.628 50.465,74.605 50.53,74.582C50.95,74.432 51.37,74.286 51.78,74.152C51.819,74.14 51.856,74.127 51.894,74.113C52.317,73.976 52.733,73.853 53.141,73.736C53.214,73.717 53.289,73.693 53.362,73.674C53.757,73.566 54.14,73.473 54.511,73.39C54.581,73.375 54.647,73.361 54.716,73.349C55.092,73.27 55.455,73.205 55.797,73.16C55.834,73.156 55.868,73.153 55.904,73.15C56.246,73.107 56.57,73.085 56.871,73.082C56.886,73.082 56.903,73.078 56.92,73.078C56.923,73.078 56.926,73.082 56.931,73.082C57.311,73.082 57.655,73.117 57.955,73.189C57.965,73.192 57.975,73.192 57.981,73.195C58.287,73.27 58.549,73.388 58.756,73.554C60.668,75.067 64.75,82.902 64.75,82.902L77.77,85.182C77.77,85.182 65.592,64.336 60.461,64.072Z" style="fill:rgb(214,36,49);fill-rule:nonzero;"/>
        </g>
        <g transform="matrix(1,0,0,1,0.534181,-23.0898)">
            <path d="M135.209,109.966L23.404,109.966L12.502,106.027L130.534,106.027L135.209,109.966Z" style="fill:rgb(214,36,49);fill-rule:nonzero;"/>
        </g>
        <g transform="matrix(1,0,0,1,0.534181,-23.0898)">
            <path d="M111.394,118.788L12.825,118.788L3.214,114.849L107.272,114.849L111.394,118.788Z" style="fill:rgb(214,36,49);fill-rule:nonzero;"/>
        </g>
        <g transform="matrix(1,0,0,1,0.534181,-23.0898)">
            <path d="M128.337,128.263L38.974,128.263L30.26,124.325L124.604,124.325L128.337,128.263Z" style="fill:rgb(214,36,49);fill-rule:nonzero;"/>
        </g>
        <g transform="matrix(1,0,0,1,0.534181,-23.0898)">
            <path d="M87.946,100.871L79.225,87.128L77.484,86.822L64.462,84.547L64.172,84.494L31.744,100.871L87.946,100.871Z" style="fill:rgb(214,36,49);fill-rule:nonzero;"/>
        </g>
    </g>
</svg>
