<?xml version="1.0" encoding="UTF-8" standalone="no"?>
<!DOCTYPE svg PUBLIC "-//W3C//DTD SVG 1.1//EN" "http://www.w3.org/Graphics/SVG/1.1/DTD/svg11.dtd">
<svg width="100%" height="100%" viewBox="0 0 592 592" version="1.1" xmlns="http://www.w3.org/2000/svg" xmlns:xlink="http://www.w3.org/1999/xlink" xml:space="preserve" style="fill-rule:evenodd;clip-rule:evenodd;stroke-linejoin:round;stroke-miterlimit:1.41421;">
    <g transform="matrix(4.16667,0,0,4.16667,0,0)">
        <path d="M68.312,54.555C66.311,51.293 68.549,46.257 72.895,43.692C76.602,41.508 79.144,43.096 81.146,46.361C83.145,49.623 84.512,55.261 81.253,57.263C77.992,59.268 70.314,57.816 68.312,54.555Z" style="fill:rgb(214,36,49);"/>
        <path d="M102.592,16.96C102.592,19.201 100.771,21.019 98.529,21.019C96.286,21.019 94.469,19.201 94.469,16.96C94.469,14.714 96.286,12.898 98.529,12.898C100.771,12.898 102.592,14.714 102.592,16.96Z" style="fill:rgb(214,36,49);fill-rule:nonzero;"/>
        <path d="M73.165,20.297C71.176,23.601 67.895,25.736 64.804,25.736C63.686,25.736 62.659,25.459 61.751,24.913C60.074,23.905 59.013,22.09 58.759,19.802C58.502,17.469 59.114,14.935 60.48,12.667C62.467,9.364 65.748,7.227 68.84,7.227C69.959,7.227 70.986,7.504 71.894,8.051C75.391,10.155 75.96,15.648 73.165,20.297ZM58.067,30.447L58.982,26.183C59.407,26.599 59.866,26.955 60.348,27.245C60.745,27.484 61.171,27.686 61.647,27.855L58.067,30.447ZM73.297,5.72C72.076,4.986 70.699,4.613 69.205,4.613C65.232,4.613 61.04,7.315 58.526,11.493C56.339,15.129 55.722,19.335 56.875,22.754L55.218,32.088L48.618,43.057L48.505,43.243L48.691,43.355L50.957,44.719L51.142,44.831L51.254,44.645L57.762,33.829L66.271,28.148C69.708,27.461 73.012,24.968 75.114,21.471C76.833,18.616 77.601,15.414 77.272,12.455C76.944,9.454 75.531,7.063 73.297,5.72Z" style="fill:rgb(214,36,49);fill-rule:nonzero;"/>
        <path d="M45.914,38.955C46.028,39.003 46.147,39.053 46.271,39.105C46.147,39.053 46.028,39.003 45.914,38.955Z" style="fill:rgb(214,36,49);fill-rule:nonzero;"/>
        <path d="M46.473,39.194C46.613,39.252 46.759,39.317 46.909,39.382C46.759,39.317 46.613,39.252 46.473,39.194Z" style="fill:rgb(214,36,49);fill-rule:nonzero;"/>
        <path d="M45.431,38.762C45.519,38.796 45.613,38.833 45.711,38.875C45.613,38.833 45.519,38.796 45.431,38.762Z" style="fill:rgb(214,36,49);fill-rule:nonzero;"/>
        <path d="M44.642,38.516C44.614,38.516 44.598,38.523 44.591,38.533C44.599,38.518 44.637,38.519 44.681,38.523C44.671,38.523 44.649,38.516 44.642,38.516Z" style="fill:rgb(214,36,49);fill-rule:nonzero;"/>
        <path d="M44.77,38.539C44.808,38.549 44.85,38.559 44.902,38.575C44.85,38.559 44.808,38.549 44.77,38.539Z" style="fill:rgb(214,36,49);fill-rule:nonzero;"/>
        <path d="M45.047,38.621C45.108,38.643 45.177,38.666 45.25,38.694C45.177,38.666 45.108,38.643 45.047,38.621Z" style="fill:rgb(214,36,49);fill-rule:nonzero;"/>
        <path d="M47.096,39.467C47.267,39.541 47.444,39.62 47.622,39.701C47.444,39.62 47.267,39.541 47.096,39.467Z" style="fill:rgb(214,36,49);fill-rule:nonzero;"/>
        <path d="M47.765,39.766C47.994,39.871 48.229,39.976 48.463,40.083C48.229,39.976 47.996,39.871 47.765,39.766Z" style="fill:rgb(214,36,49);fill-rule:nonzero;"/>
        <path d="M49.913,60.016C48.572,54.745 49.581,49.872 50.76,46.543L50.284,46.259L50.097,46.146L47.834,44.783L47.647,44.672L46.214,43.81L47.08,42.38L47.19,42.198L48.463,40.083C48.229,39.976 47.994,39.871 47.765,39.766C47.716,39.744 47.67,39.724 47.622,39.701C47.444,39.62 47.267,39.541 47.096,39.467C47.032,39.438 46.972,39.412 46.909,39.382C46.759,39.317 46.613,39.252 46.473,39.194C46.402,39.162 46.337,39.135 46.271,39.105C46.147,39.053 46.028,39.003 45.914,38.955C45.844,38.926 45.777,38.901 45.711,38.875C45.613,38.833 45.519,38.796 45.431,38.762C45.367,38.738 45.307,38.715 45.25,38.694C45.177,38.666 45.108,38.643 45.047,38.621C44.995,38.604 44.946,38.588 44.902,38.575C44.85,38.559 44.808,38.549 44.77,38.539C44.736,38.533 44.705,38.526 44.681,38.523C44.637,38.519 44.599,38.518 44.591,38.533C37.558,52.514 43.484,66.114 43.484,66.114C43.484,69.242 65.87,70.674 65.87,70.674L64.903,60.225L49.913,60.016Z" style="fill:rgb(214,36,49);fill-rule:nonzero;"/>
        <path d="M57.508,93.408L54.778,101.86C53.475,102.704 61.349,104.426 63.678,107.817C64.659,109.243 65.278,111.479 65.102,112.404L64.62,114.426C64.601,114.517 64.601,114.517 64.547,114.553C64.566,114.699 64.532,114.885 64.423,115.2L28.188,127.401L35.857,138.699L52.358,132.407C53.185,132.085 53.976,131.711 54.897,131.167C56.331,130.436 57.124,130.058 58.995,128.789C57.218,130.556 56.505,131.285 55.701,132.473C55.372,132.938 54.898,133.66 53.932,135.203L49.807,141.504L62.362,141.504L71.785,125.097C74.606,120.122 75.583,117.766 76,114.585C76.449,110.981 77.061,106.782 74.291,102.704C72.608,100.224 69.562,95.181 57.508,93.408Z" style="fill:rgb(214,36,49);fill-rule:nonzero;"/>
        <path d="M66.56,60.031L66.564,60.072L67.53,70.521L67.71,72.463L65.764,72.336C64.708,72.272 63.713,72.197 62.749,72.122C62.672,72.428 62.625,72.614 62.625,72.614L57.513,91.725L57.75,91.757C66.847,93.098 71.139,96.233 73.522,98.909L86.104,73.635L84.704,60.427L66.56,60.031Z" style="fill:rgb(214,36,49);fill-rule:nonzero;"/>
        <path d="M98.793,31.957L92.985,49.916L86.205,58.506L86.361,60.251L87.54,71.377L101.494,48.692L108.942,24.59L98.793,31.957Z" style="fill:rgb(214,36,49);fill-rule:nonzero;"/>
    </g>
</svg>
