<?xml version="1.0" encoding="UTF-8" standalone="no"?>
<!DOCTYPE svg PUBLIC "-//W3C//DTD SVG 1.1//EN" "http://www.w3.org/Graphics/SVG/1.1/DTD/svg11.dtd">
<svg width="100%" height="100%" viewBox="0 0 592 592" version="1.1" xmlns="http://www.w3.org/2000/svg" xmlns:xlink="http://www.w3.org/1999/xlink" xml:space="preserve" style="fill-rule:evenodd;clip-rule:evenodd;stroke-linejoin:round;stroke-miterlimit:1.41421;">
    <g transform="matrix(4.16667,0,0,4.16667,0,0)">
        <path d="M84.71,90.196C84.288,91.322 83.849,92.515 83.369,93.839L78.564,92.106C79.419,89.721 80.176,87.683 80.848,85.898C76.07,80.11 73.089,74.608 71.286,69.685C74.384,78.74 73.187,120.026 72.905,128.481L87.609,128.481L88.205,93.631L87.228,92.706C86.347,91.861 85.517,91.029 84.71,90.196Z" style="fill:rgb(214,36,49);fill-rule:nonzero;"/>
        <path d="M69.551,48.813L30.942,17.371L32.025,36.749C35.98,39.77 67.933,64.244 70.75,68.488C70.86,68.652 70.963,68.86 71.066,69.093C67.253,58.242 69.108,50.373 69.551,48.813Z" style="fill:rgb(214,36,49);fill-rule:nonzero;"/>
        <path d="M79.203,45.953L83.858,35.178C82.889,35.349 81.839,35.445 80.693,35.445C78.73,35.445 77.231,35.189 77.166,35.178L76.679,34.979L61.318,24.686L61.318,35.775L74.168,46.759L79.203,45.953Z" style="fill:rgb(214,36,49);fill-rule:nonzero;"/>
        <path d="M91.641,79.931C91.609,79.739 91.584,79.548 91.556,79.358C91.517,79.192 91.494,79.026 91.471,78.862C91.431,78.623 91.385,78.385 91.333,78.142C91.314,78.027 91.295,77.907 91.277,77.795C91.233,77.546 91.18,77.306 91.134,77.068C91.109,76.955 91.09,76.844 91.072,76.733C91.004,76.424 90.94,76.115 90.877,75.81C90.874,75.79 90.867,75.763 90.867,75.732C90.816,75.524 90.772,75.314 90.73,75.114C90.393,76.025 90.002,76.943 89.489,78.149C89.399,78.362 89.295,78.6 89.203,78.826L91.798,90.198C91.798,90.198 92.447,86.007 91.798,80.994C91.754,80.637 91.699,80.288 91.641,79.931Z" style="fill:rgb(214,36,49);fill-rule:nonzero;"/>
        <path d="M104.429,41.914L106.927,56.437C108.268,54.597 110.293,51.517 111.264,48.53L111.48,47.865C109.661,45.409 107.526,43.01 105.643,41.033C105.248,41.369 104.847,41.662 104.429,41.914Z" style="fill:rgb(214,36,49);fill-rule:nonzero;"/>
        <path d="M98.334,45.125L82.532,54.097L81.597,54.661C82.508,59.641 84.749,65.76 90.225,69.13L92.156,69.483C92.142,69.543 92.128,69.594 92.119,69.646C92.251,69.658 92.371,69.683 92.498,69.693C92.682,69.711 92.869,69.711 93.053,69.721C93.282,69.729 93.503,69.746 93.736,69.746C93.971,69.744 94.209,69.727 94.442,69.716C94.622,69.704 94.806,69.704 94.977,69.685C95.201,69.663 95.395,69.631 95.605,69.6C95.78,69.57 95.966,69.555 96.128,69.517C96.322,69.478 96.484,69.414 96.659,69.356C96.806,69.317 96.968,69.282 97.099,69.225C97.38,69.109 97.624,68.966 97.792,68.803C97.9,68.706 98.047,68.583 98.161,68.475L92.421,52.073L98.334,45.125Z" style="fill:rgb(214,36,49);fill-rule:nonzero;"/>
        <path d="M84.783,76.139C85.912,73.499 86.324,72.54 86.867,69.868C82.32,66.142 80.2,60.735 79.226,56.071L71.056,60.971C71.959,67.089 74.688,75.086 81.651,83.817C83.099,80.092 84.086,77.769 84.783,76.139Z" style="fill:rgb(214,36,49);fill-rule:nonzero;"/>
        <path d="M78.425,48.022L71.457,49.132C71.457,49.132 70.32,52.691 70.772,58.475L77.983,54.664L78.882,54.149C78.481,51.547 78.412,49.349 78.425,48.022Z" style="fill:rgb(214,36,49);fill-rule:nonzero;"/>
        <path d="M88.555,91.312L88.65,80.134C87.858,82.018 86.843,84.515 85.457,88.191C86.43,89.227 87.448,90.266 88.555,91.312Z" style="fill:rgb(214,36,49);fill-rule:nonzero;"/>
        <path d="M81.014,46.857C81.009,46.922 80.871,49.409 81.295,52.761L92.285,46.458L95.295,39.889C93.759,38.28 92.583,36.302 91.888,34.627L86.627,33.614L80.908,46.852L81.014,46.857Z" style="fill:rgb(214,36,49);fill-rule:nonzero;"/>
        <path d="M112.32,51.098C110.42,55.386 107.236,59.187 107.084,59.377L105.748,60.952L102.671,42.982L94.596,52.479L101.211,71.343C103.841,71.024 113.033,69.065 115.651,57.176L112.32,51.098Z" style="fill:rgb(214,36,49);fill-rule:nonzero;"/>
        <path d="M94.008,34.688C94.043,34.751 94.066,34.815 94.098,34.876C94.73,36.14 95.584,37.418 96.569,38.472C96.574,38.479 96.578,38.488 96.587,38.493C96.896,38.818 97.219,39.116 97.547,39.388C97.595,39.43 97.646,39.475 97.695,39.513C98.02,39.77 98.347,39.997 98.689,40.197C98.749,40.225 98.802,40.263 98.869,40.297C99.21,40.481 99.565,40.636 99.918,40.744C99.962,40.758 100.007,40.765 100.058,40.774C100.429,40.883 100.807,40.945 101.197,40.945L101.201,40.945C101.418,40.945 101.635,40.925 101.854,40.888C101.873,40.885 101.9,40.885 101.926,40.883C102.168,40.837 102.408,40.765 102.657,40.675C106.486,39.189 110.288,31.723 108.842,27.914C108.681,27.494 108.445,27.113 108.182,26.746C108.117,26.656 108.039,26.558 107.965,26.47C107.716,26.165 107.433,25.884 107.118,25.628C107.072,25.591 107.04,25.554 106.994,25.521C106.63,25.242 106.224,25.01 105.794,24.802C105.684,24.739 105.563,24.693 105.441,24.644C105.082,24.485 104.689,24.351 104.281,24.236C104.187,24.209 104.092,24.175 103.997,24.156C103.504,24.036 102.994,23.96 102.466,23.907C102.339,23.895 102.191,23.891 102.062,23.886C101.729,23.872 101.399,23.879 101.063,23.889C100.556,23.904 100.039,23.962 99.515,24.041C99.287,24.077 99.072,24.094 98.845,24.146C98.105,24.294 97.372,24.502 96.645,24.802C92.376,26.544 92.059,29.725 93.503,33.533C93.646,33.914 93.822,34.302 94.008,34.688Z" style="fill:rgb(214,36,49);fill-rule:nonzero;"/>
    </g>
</svg>
