<?xml version="1.0" encoding="UTF-8" standalone="no"?>
<!DOCTYPE svg PUBLIC "-//W3C//DTD SVG 1.1//EN" "http://www.w3.org/Graphics/SVG/1.1/DTD/svg11.dtd">
<svg width="100%" height="100%" viewBox="0 0 592 592" version="1.1" xmlns="http://www.w3.org/2000/svg" xmlns:xlink="http://www.w3.org/1999/xlink" xml:space="preserve" style="fill-rule:evenodd;clip-rule:evenodd;stroke-linejoin:round;stroke-miterlimit:1.41421;">
    <g transform="matrix(4.16667,0,0,4.16667,0,0)">
        <path d="M120.244,59.919L41.535,115.032C40.91,115.449 36.267,118.261 33.263,113.965L30.537,115.872C34.572,121.631 41.193,119.306 43.421,117.77L122.149,62.641L120.244,59.919Z" style="fill:rgb(214,36,49);fill-rule:nonzero;"/>
        <path d="M39.92,45.845C38.884,42.072 32.14,37.784 28.373,38.817C24.597,39.851 22.747,45.171 24.199,50.121C25.433,54.343 28.441,54.933 32.213,53.898C35.992,52.862 40.951,49.612 39.92,45.845Z" style="fill:rgb(214,36,49);fill-rule:nonzero;"/>
        <path d="M53.62,57.102C53.512,58.129 53.38,58.98 53.233,59.69L89.705,33.689L91.783,36.612L93.255,35.562L91.177,32.642L93.041,31.311L91.942,29.779L90.081,31.103L87.975,28.141L86.503,29.188L88.611,32.153L53.62,57.102Z" style="fill:rgb(214,36,49);fill-rule:nonzero;"/>
        <path d="M60.19,49.57L61.16,49.683L77.521,38.021L76.616,37.86L53.048,33.657C53.588,39.996 53.841,44.959 53.896,48.844L60.19,49.57Z" style="fill:rgb(214,36,49);fill-rule:nonzero;"/>
        <path d="M79.289,53.734C79.289,53.734 82.035,51.99 86.271,49.332L82.877,41.401L82.611,40.787L62.093,55.413C61.842,55.847 61.605,56.287 61.38,56.728C57.885,63.607 57.894,71.356 66.218,77.683L79.903,84.865L89.564,77.553L72.199,67.047C70.519,65.111 71.543,57.974 79.289,53.734Z" style="fill:rgb(214,36,49);fill-rule:nonzero;"/>
        <path d="M31.865,67.137L36.326,74.994L49.943,61.76C51.781,59.916 52.132,49.829 50.694,33.288L41.806,38.753C42.473,45.291 42.892,51.716 43.023,56.325L31.865,67.137Z" style="fill:rgb(214,36,49);fill-rule:nonzero;"/>
    </g>
</svg>
